<svg width="31" height="53" viewBox="0 0 31 53" fill="none" xmlns="http://www.w3.org/2000/svg">
<path fill-rule="evenodd" clip-rule="evenodd" d="M19.0606 30.0646C18.0154 29.9752 17.0234 30.3777 16.0403 30.6729C15.7834 30.7534 15.5266 30.8339 15.2697 30.9144L15.2963 28.1862C24.1446 28.1862 31 22.9801 31 13.8471C31 8.0238 27.4217 0.393586 19.8931 0.384641C15.3051 0.384641 12.586 3.41705 12.1431 6.96827C11.6737 10.7342 11.7003 13.2746 11.9129 16.4322L12.5506 26.1377C7.10343 25.0911 4.26914 19.0442 4.26914 12.9078C4.26029 6.06481 7.67914 1.22549 11.5674 0C5.66857 0.60827 0 7.013 0 12.9078C0 20.216 4.29571 26.9786 12.5506 28.0699L12.9226 31.6748C11.9394 31.9878 10.9474 32.3009 9.95543 32.5693C7.83857 33.097 5.75714 33.7679 3.60486 34.1347C3.20629 34.2241 2.68371 34.2957 2.57743 34.7698C2.34714 35.5659 2.44457 36.4157 2.52429 37.2208C3.85286 36.8719 5.21686 36.7019 6.56314 36.4246C8.87486 36.0489 11.0449 35.1902 13.1971 34.2868L14.4017 45.9065L15.1014 53L15.2609 33.4101C16.0757 33.0613 16.8994 32.7214 17.732 32.4172C19.2643 31.6837 21.0003 31.4064 22.6831 31.6569C24.5343 31.9789 26.3854 32.3457 28.148 32.9986C27.6609 32.5872 27.0586 32.3725 26.5006 32.0862C24.1711 30.9681 21.638 30.2972 19.0694 30.0557L19.0606 30.0646ZM15.7214 11.9865C15.8366 8.14008 15.7834 2.47781 19.7603 2.53148C23.4714 2.5762 26.722 8.82886 26.7309 13.6592C26.7309 21.5399 22.258 26.415 15.2963 26.415L15.7214 11.9776V11.9865Z" fill="#E82760"/>
</svg>
