<svg width="50" height="50" viewBox="0 0 50 50" fill="none" xmlns="http://www.w3.org/2000/svg">
<path d="M38.3333 38.3333H43.6667C46.6122 38.3333 49 35.9455 49 33V22.3333C49 19.3878 46.6122 17 43.6667 17H6.33333C3.38781 17 1 19.3878 1 22.3333V33C1 35.9455 3.38781 38.3333 6.33333 38.3333H11.6667M17 49H33C35.9455 49 38.3333 46.6122 38.3333 43.6667V33C38.3333 30.0545 35.9455 27.6667 33 27.6667H17C14.0545 27.6667 11.6667 30.0545 11.6667 33V43.6667C11.6667 46.6122 14.0545 49 17 49ZM38.3333 17V6.33333C38.3333 3.38781 35.9455 1 33 1H17C14.0545 1 11.6667 3.38781 11.6667 6.33333V17H38.3333Z" stroke="#E82760" stroke-width="2" stroke-linecap="round" stroke-linejoin="round"/>
</svg>
