<svg width="44" height="41" viewBox="0 0 44 41" fill="none" xmlns="http://www.w3.org/2000/svg">
<path d="M3.33333 1V0H2.33333V1H3.33333ZM40.6667 1H41.6667V0H40.6667V1ZM9.63224 18.6399C9.23842 19.0271 9.23306 19.6602 9.62026 20.054C10.0075 20.4479 10.6406 20.4532 11.0344 20.066L9.63224 18.6399ZM17.3333 12.4706L18.0344 11.7575C17.6453 11.3749 17.0214 11.3749 16.6322 11.7575L17.3333 12.4706ZM24.3333 19.3529L23.6322 20.066C24.0214 20.4486 24.6453 20.4486 25.0344 20.066L24.3333 19.3529ZM34.3678 10.8895C34.7616 10.5023 34.7669 9.8692 34.3797 9.47538C33.9925 9.08156 33.3594 9.0762 32.9656 9.4634L34.3678 10.8895ZM11.9656 39.2869C11.5718 39.6741 11.5664 40.3073 11.9536 40.7011C12.3408 41.0949 12.9739 41.1003 13.3678 40.7131L11.9656 39.2869ZM22 30.8235L22.7011 30.1105C22.312 29.7279 21.688 29.7279 21.2989 30.1105L22 30.8235ZM30.6322 40.7131C31.0261 41.1003 31.6592 41.0949 32.0464 40.7011C32.4336 40.3073 32.4282 39.6741 32.0344 39.2869L30.6322 40.7131ZM1 0C0.447715 0 0 0.447715 0 1C0 1.55228 0.447715 2 1 2V0ZM43 2C43.5523 2 44 1.55228 44 1C44 0.447715 43.5523 0 43 0V2ZM3.33333 2H40.6667V0H3.33333V2ZM39.6667 1V28.5294H41.6667V1H39.6667ZM38.3333 29.8235H5.66667V31.8235H38.3333V29.8235ZM4.33333 28.5294V1H2.33333V28.5294H4.33333ZM5.66667 29.8235C4.91424 29.8235 4.33333 29.2282 4.33333 28.5294H2.33333C2.33333 30.3646 3.84176 31.8235 5.66667 31.8235V29.8235ZM39.6667 28.5294C39.6667 29.2282 39.0858 29.8235 38.3333 29.8235V31.8235C40.1582 31.8235 41.6667 30.3646 41.6667 28.5294H39.6667ZM11.0344 20.066L18.0344 13.1837L16.6322 11.7575L9.63224 18.6399L11.0344 20.066ZM16.6322 13.1837L23.6322 20.066L25.0344 18.6399L18.0344 11.7575L16.6322 13.1837ZM25.0344 20.066L34.3678 10.8895L32.9656 9.4634L23.6322 18.6399L25.0344 20.066ZM13.3678 40.7131L22.7011 31.5366L21.2989 30.1105L11.9656 39.2869L13.3678 40.7131ZM21.2989 31.5366L30.6322 40.7131L32.0344 39.2869L22.7011 30.1105L21.2989 31.5366ZM1 2H43V0H1V2Z" fill="#E82760"/>
</svg>
